<?xml version="1.0" encoding="utf-8"?>
<!DOCTYPE svg PUBLIC "-//W3C//DTD SVG 1.1//EN" "http://www.w3.org/Graphics/SVG/1.1/DTD/svg11.dtd">
<svg version="1.1" xmlns="http://www.w3.org/2000/svg" x="0px" y="0px" viewBox="0 0 1000 1000"
     enable-background="new 0 0 1000 1000" xml:space="preserve">
<path
  d="M518.1,790.1H411.5v105.3h-63.4V790.1H246.8v-46.7h90.6l-23.5-40.6h-67v-46.8h41.9l-53.4-94.7h72L379.5,703h2l74.2-141.7h74.2L474,655.9h44.1v46.8h-70.6l-24.4,40.6h95L518.1,790.1L518.1,790.1z M560.9,301.9c0,33-10.3,50.8-31,53.3v50h264v-51.2l-194.4,1.2v-1.7c10.6-6.7,17.2-13.9,20-21.7l3.3-23.1l-0.3-17.1V281h88.1v-45.5h-88.1v-53.3c0-21.9,3.5-36.1,10.6-42.7c7-6.6,22.5-9.9,46.3-9.9c21,0,34.4,2.9,40.6,8.6c6.2,5.7,9.2,18.3,9.2,37.9l0.3,6.9h61.7l0.3-16c0-35.5-8-59.5-23.8-71.8c-15.8-12.3-46.6-18.4-92.1-18.4c-66.5,0-103.6,19.7-111.2,59l-3.3,38.3v13.8v47.6h-40V281h40v21L560.9,301.9L560.9,301.9z M170.1,503.4c0-181.9,148-329.9,329.9-329.9v-90c-231.5,0-419.9,188.3-419.9,419.8H10l115.1,156.7l115.2-156.7H170.1z M874.9,346.8L759.7,503.4h70.2c0,181.9-148,329.9-329.9,329.9v90c231.5,0,419.9-188.4,419.9-419.8H990L874.9,346.8z"/>
</svg>
